<?xml version="1.0" encoding="UTF-8" standalone="no"?>
<svg width="24px" height="14px" viewBox="0 0 24 14" version="1.1" xmlns="http://www.w3.org/2000/svg" xmlns:xlink="http://www.w3.org/1999/xlink">
    <!-- Generator: Sketch 41.2 (35397) - http://www.bohemiancoding.com/sketch -->
    <title>Shape</title>
    <desc>Created with Sketch.</desc>
    <defs></defs>
    <g id="Symbols" stroke="none" stroke-width="1" fill="none" fill-rule="evenodd">
        <path d="M7.13833333,13.805 C3.375,13.805 0.333333333,10.7633333 0.333333333,7 C0.333333333,3.23666667 3.375,0.195 7.13833333,0.195 C8.97666667,0.195 10.5116667,0.865 11.6966667,1.97333333 L9.85166667,3.75333333 C9.345,3.26666667 8.46166667,2.70333333 7.13833333,2.70333333 C4.815,2.70333333 2.92,4.62833333 2.92,7.00166667 C2.92,9.375 4.81666667,11.3 7.13833333,11.3 C9.83166667,11.3 10.845,9.36333333 10.9983333,8.36333333 L7.13833333,8.36333333 L7.13833333,6.03 L13.5633333,6.03 C13.6233333,6.37 13.67,6.71 13.67,7.15833333 C13.6716667,11.045 11.065,13.805 7.13833333,13.805 L7.13833333,13.805 Z M23.6666667,7.97166667 L20.75,7.97166667 L20.75,10.8883333 L18.805,10.8883333 L18.805,7.97166667 L15.8883333,7.97166667 L15.8883333,6.02833333 L18.805,6.02833333 L18.805,3.11166667 L20.75,3.11166667 L20.75,6.02833333 L23.6666667,6.02833333 L23.6666667,7.97166667 L23.6666667,7.97166667 Z" id="Shape" fill="#fff"></path>
    </g>
</svg>