<?xml version="1.0" encoding="UTF-8" standalone="no"?>
<svg width="16px" height="16px" viewBox="0 0 16 16" version="1.1" xmlns="http://www.w3.org/2000/svg" xmlns:xlink="http://www.w3.org/1999/xlink">
    <!-- Generator: Sketch 41.2 (35397) - http://www.bohemiancoding.com/sketch -->
    <title>Shape</title>
    <desc>Created with Sketch.</desc>
    <defs></defs>
    <g id="Symbols" stroke="none" stroke-width="1" fill="none" fill-rule="evenodd">
        <path d="M3.5,15.1816667 L0.166666667,15.1816667 L0.166666667,5.18166667 L3.5,5.18166667 L3.5,15.1816667 L3.5,15.1816667 Z M1.83333333,3.69666667 C0.821666667,3.69666667 0,2.87 0,1.84833333 C0,0.828333333 0.82,0 1.83333333,0 C2.84666667,0 3.66666667,0.828333333 3.66666667,1.84833333 C3.66666667,2.87 2.845,3.69666667 1.83333333,3.69666667 L1.83333333,3.69666667 Z M15.1666667,15.1816667 L11.8366667,15.1816667 L11.8366667,10.4133333 C11.8366667,7.27833333 8.5,7.54333333 8.5,10.4133333 L8.5,15.1816667 L5.16666667,15.1816667 L5.16666667,5.18166667 L8.5,5.18166667 L8.5,7.00333333 C9.95333333,4.31 15.1666667,4.11 15.1666667,9.58333333 L15.1666667,15.1816667 L15.1666667,15.1816667 Z" id="Shape" fill="#fff"></path>
    </g>
</svg>