<?xml version="1.0" encoding="UTF-8" standalone="no"?>
<svg width="15px" height="13px" viewBox="0 0 15 13" version="1.1" xmlns="http://www.w3.org/2000/svg" xmlns:xlink="http://www.w3.org/1999/xlink">
    <!-- Generator: Sketch 41.2 (35397) - http://www.bohemiancoding.com/sketch -->
    <title>Shape</title>
    <desc>Created with Sketch.</desc>
    <defs></defs>
    <g id="Symbols" stroke="none" stroke-width="1" fill="none" fill-rule="evenodd">
        <path d="M13.4645332,3.0872087 C13.6606186,7.48661722 10.4321737,12.3913043 4.71676548,12.3913043 C2.9787842,12.3913043 1.36188299,11.8729582 0,10.9854538 C1.63297378,11.181467 3.26273305,10.7197469 4.55603972,9.69067733 C3.2102293,9.6656312 2.07336238,8.76070336 1.68012001,7.51819714 C2.16336881,7.61184791 2.63911708,7.58462385 3.07093364,7.46483797 C1.59118508,7.1621064 0.568969212,5.80743704 0.60218587,4.35802795 C1.01792985,4.59215488 1.49153511,4.73263105 1.99621402,4.74896549 C0.625758983,3.81790254 0.237874134,1.97864487 1.04364597,0.572794278 C2.56089721,2.46541111 4.82927352,3.71009526 7.38695621,3.84077076 C6.93799557,1.8849941 8.39845703,0 10.386099,0 C11.2700907,0 12.070505,0.380047914 12.6319737,0.987688992 C13.3327381,0.848301792 13.9927852,0.58695079 14.586399,0.228682126 C14.3560254,0.959375967 13.8684906,1.5713729 13.2330881,1.95904355 C13.8556325,1.88281617 14.4492464,1.71511595 15,1.46574353 C14.588542,2.09516386 14.0677906,2.64617889 13.4645332,3.0872087 L13.4645332,3.0872087 Z" id="Shape" fill="#fff"></path>
    </g>
</svg>