<?xml version="1.0" encoding="UTF-8" standalone="no"?>
<svg width="79px" height="94px" viewBox="0 0 79 94" version="1.1" xmlns="http://www.w3.org/2000/svg" xmlns:xlink="http://www.w3.org/1999/xlink">
    <title>Page 1</title>
    <desc>Created with Sketch.</desc>
    <defs>
        <polygon id="path-1" points="0.5905 17 8.4745 17 8.4745 0.1244 0.5905 0.1244 0.5905 17"></polygon>
        <polygon id="path-3" points="0.7445 17 8.2375 17 8.2375 0.3853 0.7445 0.3853 0.7445 17"></polygon>
        <polygon id="path-5" points="0 94.8438 78.442 94.8438 78.442 0.9998 0 0.9998"></polygon>
    </defs>
    <g id="Global" stroke="none" stroke-width="1" fill="none" fill-rule="evenodd">
        <g id="Page-1" transform="translate(0.000000, -1.000000)">
            <g id="Group-3" transform="translate(0.000000, 0.843800)" fill="#800051">
                <path d="M77.5112,54.9824 C77.1552,58.3934 74.3732,61.1694 70.9672,61.5324 C52.9452,62.7694 25.5012,62.7694 7.4752,61.5324 C4.0652,61.1694 1.2882,58.3934 0.9292,54.9824 C-0.3118,36.9644 -0.3078,25.6564 0.9292,7.6374 C1.2882,4.2234 4.0652,1.4464 7.4752,1.0844 C25.5012,-0.1526 52.9452,-0.1526 70.9672,1.0844 C74.3772,1.4464 77.1552,4.2234 77.5112,7.6374 C78.7502,25.6514 78.7522,36.9644 77.5112,54.9824" id="Fill-1"></path>
            </g>
            <path d="M22.4746,47.0752 C21.5846,47.2632 20.8816,47.3362 20.2886,47.3362 C18.4306,47.3362 17.4356,46.4842 17.4356,44.8112 C17.4356,42.6992 18.9906,42.1032 22.4746,41.9562 L22.4746,47.0752 Z M35.7906,24.8992 L28.9246,25.6752 L28.9246,27.8262 L31.1596,28.2372 L31.1596,47.2902 L27.1116,47.2632 L27.1116,37.5082 C27.1116,33.8722 25.4076,32.2802 20.8446,32.2802 C18.8036,32.2802 16.5086,32.9102 13.9846,34.2422 L13.9846,37.1742 L18.4306,37.1742 L19.2526,35.0232 C19.6976,34.9472 19.9896,34.9122 20.2166,34.9122 C22.1446,34.9122 22.4746,36.0242 22.4746,38.1012 L22.4746,39.5102 C21.7346,39.4742 21.0676,39.4372 20.4036,39.4372 C15.1716,39.4372 12.6836,41.1802 12.6836,45.0732 C12.6836,48.5642 14.8376,50.7472 17.9136,50.7472 C19.5076,50.7472 21.1416,50.1902 22.4746,49.0822 L22.4746,50.7472 L28.9246,50.3032 L38.0176,50.3032 L38.0176,48.1522 L35.7906,47.4822 L35.7906,24.8992 Z" id="Fill-4" fill="#FEFEFE"></path>
            <path d="M49.5103,35.4693 L49.5103,32.6883 L44.4263,32.6883 L44.4263,28.5713 L42.1663,28.5713 L40.7263,31.6113 L37.5683,33.2423 L37.5683,35.4693 L39.7933,35.4693 L39.7933,45.0733 C39.7933,49.0043 40.7263,50.7473 44.1703,50.7473 C45.8803,50.7473 47.6153,50.3033 49.5103,49.4873 L49.5103,46.7773 C48.5053,46.9273 47.7653,47.0013 47.3263,47.0013 C44.7193,47.0013 44.4263,45.8123 44.4263,43.5513 L44.4263,35.4693 L49.5103,35.4693 Z" id="Fill-6" fill="#FEFEFE"></path>
            <path d="M59.8237,32.251 C59.6537,33.096 58.8377,33.788 58.0087,33.788 C57.1797,33.788 56.6387,33.096 56.8087,32.251 L58.2877,24.869 C58.4567,24.024 59.2737,23.333 60.1017,23.333 C60.9307,23.333 61.4707,24.024 61.3027,24.869 L59.8237,32.251 Z" id="Fill-8" fill="#EE4180"></path>
            <path d="M65.6958,32.2515 C65.8648,33.0965 66.6838,33.7875 67.5148,33.7875 C68.3448,33.7875 68.8858,33.0965 68.7168,32.2515 L67.2338,24.8685 C67.0648,24.0235 66.2468,23.3325 65.4158,23.3325 C64.5858,23.3325 64.0468,24.0235 64.2158,24.8685 L65.6958,32.2515 Z" id="Fill-10" fill="#EE4180"></path>
            <path d="M67.4937,22.4922 C68.4717,22.3592 69.2707,22.9122 69.2707,23.7212 C69.2707,24.5312 68.4717,25.3002 67.4937,25.4302 L64.3747,25.8472 C63.3957,25.9782 61.7967,25.9762 60.8177,25.8412 L57.8777,25.4372 C56.8987,25.3022 56.0987,24.5312 56.0987,23.7212 C56.0987,22.9122 56.8987,22.3602 57.8777,22.4942 L60.8777,22.9052 C61.8557,23.0392 63.4557,23.0402 64.4327,22.9072 L67.4937,22.4922 Z" id="Fill-12" fill="#EE4180"></path>
            <path d="M65.4438,9.94 C67.0598,9.94 68.1968,11.25 67.9708,12.85 L67.2868,17.701 C67.0598,19.301 65.5538,20.61 63.9378,20.61 L61.4298,20.61 C59.8138,20.61 58.3078,19.301 58.0828,17.701 L57.3968,12.85 C57.1718,11.25 58.3088,9.94 59.9248,9.94 L65.4438,9.94 Z" id="Fill-14" fill="#EE4180"></path>
            <path d="M15.5679,79.0762 C13.4829,79.0762 12.2449,80.3472 12.2449,82.3992 L12.2449,94.5832 L11.0069,94.5832 L11.0069,78.2292 L12.2449,78.2292 L12.2449,79.9552 C12.3419,79.6622 12.6359,79.2062 12.7979,79.0432 C13.5149,78.2622 14.5259,77.9682 15.6979,77.9682 L15.6979,79.0762 L15.5679,79.0762 Z" id="Fill-16" fill="#6C6E70"></path>
            <g id="Group-20" transform="translate(17.000000, 77.843800)">
                <mask id="mask-2" fill="white">
                    <use xlink:href="#path-1"></use>
                </mask>
                <g id="Clip-19"></g>
                <path d="M6.2915,1.9814 C5.9005,1.5584 5.3135,1.2324 4.5325,1.2324 C3.7505,1.2324 3.1645,1.5584 2.7725,1.9814 C1.9915,2.8284 1.8605,4.3274 1.8285,7.5204 L7.2365,7.5204 C7.2035,4.3274 7.0735,2.8284 6.2915,1.9814 L6.2915,1.9814 Z M1.8285,8.5624 C1.8285,12.4714 1.9585,14.1984 2.8065,15.1434 C3.1965,15.5664 3.8155,15.8924 4.5975,15.8924 C5.2495,15.8924 5.9335,15.6964 6.3895,15.2404 C6.9765,14.6874 7.2365,13.8074 7.2365,12.6024 L8.4415,12.6024 C8.4415,14.2314 8.0835,15.1434 7.3015,15.9574 C6.6175,16.6414 5.6405,17.0004 4.5975,17.0004 C3.3925,17.0004 2.4795,16.5444 1.8605,15.8594 C0.8835,14.7844 0.5905,12.8304 0.5905,8.5624 C0.5905,4.2944 0.8515,2.3394 1.8285,1.2654 C2.4475,0.5804 3.3265,0.1244 4.5325,0.1244 C5.7375,0.1244 6.6175,0.5804 7.2365,1.2654 C8.2135,2.3394 8.4745,4.2944 8.4745,8.5624 L1.8285,8.5624 Z" id="Fill-18" fill="#6C6E70" mask="url(#mask-2)"></path>
            </g>
            <path d="M35.0845,93.8335 C34.3995,94.5185 33.4875,94.8435 32.3805,94.8435 C31.2725,94.8435 30.2955,94.3875 29.6765,93.7035 C28.6985,92.6285 28.4385,90.6735 28.4385,86.4065 C28.4385,82.1385 28.6985,80.1835 29.6765,79.1085 C30.2955,78.4245 31.2725,77.9685 32.3805,77.9685 C33.5535,77.9685 34.4325,78.2615 35.0845,78.9135 C36.0285,79.8575 36.1265,81.0955 36.1265,82.3665 L34.9215,82.3665 C34.9215,81.4215 34.8885,80.4775 34.2045,79.7605 C33.7485,79.2715 33.1615,79.0765 32.4125,79.0765 C31.6305,79.0765 31.0125,79.4015 30.6205,79.8255 C29.7735,80.7705 29.6765,82.4965 29.6765,86.4065 C29.6765,90.3155 29.7735,92.0415 30.6205,92.9865 C31.0125,93.4105 31.6305,93.7355 32.4125,93.7355 C33.0635,93.7355 33.6835,93.5405 34.1395,93.0845 C34.7905,92.4335 34.9215,91.5535 34.9215,90.4455 L36.1265,90.4455 C36.1265,92.0095 35.8655,93.0195 35.0845,93.8335" id="Fill-21" fill="#6C6E70"></path>
            <path d="M44.1392,79.0762 C42.0542,79.0762 40.8162,80.3472 40.8162,82.3992 L40.8162,94.5832 L39.5782,94.5832 L39.5782,78.2292 L40.8162,78.2292 L40.8162,79.9552 C40.9132,79.6622 41.2072,79.2062 41.3692,79.0432 C42.0862,78.2622 43.0972,77.9682 44.2692,77.9682 L44.2692,79.0762 L44.1392,79.0762 Z" id="Fill-23" fill="#6C6E70"></path>
            <g id="Group-27" transform="translate(46.000000, 77.843800)">
                <mask id="mask-4" fill="white">
                    <use xlink:href="#path-3"></use>
                </mask>
                <g id="Clip-26"></g>
                <path d="M6.9995,16.7393 L6.9995,15.4043 C6.8365,15.7613 6.4125,16.1853 6.1525,16.3813 C5.6315,16.7723 5.0125,17.0003 4.1975,17.0003 C3.1875,17.0003 2.3735,16.6093 1.7545,15.9573 C1.1035,15.3053 0.7445,14.3933 0.7445,12.8623 L0.7445,0.3853 L1.9825,0.3853 L1.9825,12.8953 C1.9825,14.8823 3.0905,15.8603 4.4905,15.8603 C5.8925,15.8603 6.9995,14.8823 6.9995,12.8953 L6.9995,0.3853 L8.2375,0.3853 L8.2375,16.7393 L6.9995,16.7393 Z" id="Fill-25" fill="#6C6E70" mask="url(#mask-4)"></path>
            </g>
            <mask id="mask-6" fill="white">
                <use xlink:href="#path-5"></use>
            </mask>
            <g id="Clip-29"></g>
            <path d="M58.537,94.5828 L59.774,94.5828 L59.774,78.2288 L58.537,78.2288 L58.537,94.5828 Z M58.243,73.8308 L60.068,73.8308 L60.068,72.0068 L58.243,72.0068 L58.243,73.8308 Z" id="Fill-28" fill="#6C6E70" mask="url(#mask-6)"></path>
            <path d="M65.606,93.5406 C64.889,92.8236 64.531,91.7816 64.531,90.4456 L64.531,79.2386 L62.413,79.2386 L62.413,78.2286 L64.531,78.2286 L64.531,73.2126 L65.768,73.2126 L65.768,78.2286 L68.765,78.2286 L68.765,79.2386 L65.768,79.2386 L65.768,90.5106 C65.768,92.6286 66.909,93.4756 68.928,93.4756 L68.928,94.5826 C67.691,94.5826 66.518,94.4526 65.606,93.5406" id="Fill-30" fill="#6C6E70" mask="url(#mask-6)"></path>
        </g>
    </g>
</svg>