<?xml version="1.0" encoding="UTF-8" standalone="no"?>
<svg width="40px" height="40px" viewBox="0 0 40 40" version="1.1" xmlns="http://www.w3.org/2000/svg" xmlns:xlink="http://www.w3.org/1999/xlink">
    <!-- Generator: Sketch 41.2 (35397) - http://www.bohemiancoding.com/sketch -->
    <title>Shape</title>
    <desc>Created with Sketch.</desc>
    <defs></defs>
    <g id="Global" stroke="none" stroke-width="1" fill="none" fill-rule="evenodd">
        <path d="M20,0 C8.955,0 0,8.955 0,20 C0,31.045 8.955,40 20,40 C31.045,40 40,31.045 40,20 C40,8.955 31.045,0 20,0 L20,0 Z M24,14.1071429 L22.0714286,14.1071429 C21.3028571,14.1071429 21.1428571,14.4097024 21.1428571,15.1722619 L21.1428571,16.8452381 L24,16.8452381 L23.7014286,19.5833333 L21.1428571,19.5833333 L21.1428571,29.1666667 L16.8571429,29.1666667 L16.8571429,19.5833333 L14,19.5833333 L14,16.8452381 L16.8571429,16.8452381 L16.8571429,13.6854762 C16.8571429,11.263631 18.1871429,10 21.1842857,10 L24,10 L24,14.1071429 L24,14.1071429 Z" id="Shape" fill="#496198"></path>
    </g>
</svg>