<?xml version="1.0" encoding="UTF-8" standalone="no"?>
<svg width="40px" height="40px" viewBox="0 0 40 40" version="1.1" xmlns="http://www.w3.org/2000/svg" xmlns:xlink="http://www.w3.org/1999/xlink">
    <!-- Generator: Sketch 41.2 (35397) - http://www.bohemiancoding.com/sketch -->
    <title>Shape</title>
    <desc>Created with Sketch.</desc>
    <defs></defs>
    <g id="Global" stroke="none" stroke-width="1" fill="none" fill-rule="evenodd">
        <path d="M20,0 C8.955,0 0,8.955 0,20 C0,31.045 8.955,40 20,40 C31.045,40 40,31.045 40,20 C40,8.955 31.045,0 20,0 L20,0 Z M15.1383333,26.805 C11.375,26.805 8.33333333,23.7633333 8.33333333,20 C8.33333333,16.2366667 11.375,13.195 15.1383333,13.195 C16.9766667,13.195 18.5116667,13.865 19.6966667,14.9733333 L17.8516667,16.7533333 C17.345,16.2666667 16.4616667,15.7033333 15.1383333,15.7033333 C12.815,15.7033333 10.92,17.6283333 10.92,20.0016667 C10.92,22.375 12.8166667,24.3 15.1383333,24.3 C17.8316667,24.3 18.845,22.3633333 18.9983333,21.3633333 L15.1383333,21.3633333 L15.1383333,19.03 L21.5633333,19.03 C21.6233333,19.37 21.67,19.71 21.67,20.1583333 C21.6716667,24.045 19.065,26.805 15.1383333,26.805 L15.1383333,26.805 Z M31.6666667,20.9716667 L28.75,20.9716667 L28.75,23.8883333 L26.805,23.8883333 L26.805,20.9716667 L23.8883333,20.9716667 L23.8883333,19.0283333 L26.805,19.0283333 L26.805,16.1116667 L28.75,16.1116667 L28.75,19.0283333 L31.6666667,19.0283333 L31.6666667,20.9716667 L31.6666667,20.9716667 Z" id="Shape" fill="#DF4F3F"></path>
    </g>
</svg>