<?xml version="1.0" encoding="UTF-8" standalone="no"?>
<svg width="30px" height="30px" viewBox="0 0 30 30" version="1.1" xmlns="http://www.w3.org/2000/svg" xmlns:xlink="http://www.w3.org/1999/xlink">
    <!-- Generator: Sketch 41.2 (35397) - http://www.bohemiancoding.com/sketch -->
    <title>Group 4</title>
    <desc>Created with Sketch.</desc>
    <defs>
        <path d="M20.8796053,7.71157895 L9.84789474,7.71157895 C8.89776316,7.71157895 8.12763158,8.47973684 8.12763158,9.42789474 L8.12763158,20.4675 C8.12763158,21.4152632 8.89776316,22.1838158 9.84789474,22.1838158 L20.8796053,22.1838158 C21.8297368,22.1838158 22.5998684,21.4152632 22.5998684,20.4675 L22.5998684,9.42789474 C22.5998684,8.47973684 21.8297368,7.71157895 20.8796053,7.71157895 Z M18.5297368,9.97263158 C18.5297368,9.72315789 18.7322368,9.52026316 18.9817105,9.52026316 L20.3384211,9.52026316 C20.5882895,9.52026316 20.7907895,9.72315789 20.7907895,9.97263158 L20.7907895,11.3293421 C20.7907895,11.5792105 20.5882895,11.7817105 20.3384211,11.7817105 L18.9817105,11.7817105 C18.7322368,11.7817105 18.5297368,11.5792105 18.5297368,11.3293421 L18.5297368,9.97263158 Z M15.3805263,12.1878947 C16.9176316,12.1878947 18.1638158,13.4313158 18.1638158,14.9644737 C18.1638158,16.4980263 16.9176316,17.7410526 15.3805263,17.7410526 C13.8438158,17.7410526 12.5976316,16.4980263 12.5976316,14.9644737 C12.5976316,13.4313158 13.8438158,12.1878947 15.3805263,12.1878947 Z M21.2431579,20.3747368 C21.2431579,20.6242105 21.0406579,20.8271053 20.7907895,20.8271053 L9.93671053,20.8271053 C9.68684211,20.8271053 9.48434211,20.6242105 9.48434211,20.3747368 L9.48434211,13.5907895 L11.2934211,13.5907895 C11.0577632,13.9298684 10.9780263,14.5626316 10.9780263,14.9644737 C10.9780263,17.3861842 12.9532895,19.3567105 15.3805263,19.3567105 C17.8081579,19.3567105 19.7834211,17.3861842 19.7834211,14.9644737 C19.7834211,14.5626316 19.7261842,13.9393421 19.4340789,13.5907895 L21.2431579,13.5907895 L21.2431579,20.3747368 Z" id="path-1"></path>
    </defs>
    <g id="Jobs" stroke="none" stroke-width="1" fill="none" fill-rule="evenodd">
        <g id="Group-4">
            <path d="M29.9727632,14.9865789 C29.9727632,23.2634211 23.2634211,29.9731579 14.9865789,29.9731579 C6.70973684,29.9731579 0,23.2634211 0,14.9865789 C0,6.70973684 6.70973684,0 14.9865789,0 C23.2634211,0 29.9727632,6.70973684 29.9727632,14.9865789 Z" id="Clip-2" fill="#AEAEAE"></path>
            <mask id="mask-2" fill="white">
                <use xlink:href="#path-1"></use>
            </mask>
            <g id="Clip-5"></g>
            <polygon id="Fill-4" fill="#FFFFFF" mask="url(#mask-2)" points="6.15394737 5.73789474 24.5735526 5.73789474 24.5735526 24.1575 6.15394737 24.1575"></polygon>
        </g>
    </g>
</svg>