<?xml version="1.0" encoding="UTF-8" standalone="no"?>
<svg width="436px" height="67px" viewBox="0 0 436 67" version="1.1" xmlns="http://www.w3.org/2000/svg" xmlns:xlink="http://www.w3.org/1999/xlink">
    <!-- Generator: Sketch 41.2 (35397) - http://www.bohemiancoding.com/sketch -->
    <title>Page 1</title>
    <desc>Created with Sketch.</desc>
    <defs></defs>
    <g id="Candidate-Portal" stroke="none" stroke-width="1" fill="none" fill-rule="evenodd">
        <g id="Page-1" transform="translate(-1.000000, -1.000000)">
            <path d="M20.5483,25.5624 L5.2043,20.1244 C3.7983,19.6254 2.5003,20.4294 2.3183,21.9094 L1.0123,32.5574 C0.8303,34.0374 1.8993,35.1684 3.3873,35.0704 L19.4683,34.0084 L20.5483,25.5624 Z" id="Fill-1" fill="#810052"></path>
            <path d="M47.832,26.64 C49.253,26.186 49.833,24.743 49.123,23.431 L44.012,14.002 C43.301,12.691 41.799,12.418 40.673,13.396 L28.383,24.076 L32.482,31.545 L47.832,26.64 Z" id="Fill-3" fill="#810052"></path>
            <path d="M19.4683,34.0087 L9.0513,47.5847 C8.1443,48.7677 8.5063,50.2517 9.8583,50.8827 L19.5833,55.4177 C20.9353,56.0487 22.3403,55.3817 22.7073,53.9347 L26.8703,37.5077 L19.4683,34.0087 Z" id="Fill-5" fill="#810052"></path>
            <path d="M26.8706,37.5072 L36.7506,51.2712 C37.6206,52.4832 39.1726,52.5902 40.1996,51.5082 L47.5966,43.7262 C48.6236,42.6452 48.4186,41.1312 47.1406,40.3622 L32.4816,31.5452 L26.8706,37.5072 Z" id="Fill-7" fill="#810052"></path>
            <path d="M85.3755,32.2152 C89.3465,32.2152 92.0805,29.4062 92.0805,24.5532 C92.0805,20.0412 89.6865,17.3082 85.2395,17.3082 L82.6385,17.3082 L82.6385,32.2152 L85.3755,32.2152 Z M69.5105,49.9282 L73.6095,48.6932 L73.6095,17.6442 L69.5105,16.3462 L69.5105,12.4472 L86.0575,12.4472 C89.7605,12.4472 92.9045,12.5162 95.7035,13.9512 C99.3315,15.7972 101.3825,19.2862 101.3825,24.0012 C101.3825,32.6302 96.3205,37.1372 86.1965,37.1372 L82.6385,37.1372 L82.6385,48.6932 L87.9085,49.9282 L87.9085,53.8972 L69.5105,53.8972 L69.5105,49.9282 Z" id="Fill-9" fill="#810052"></path>
            <path d="M120.9775,32.6303 L120.9775,32.0773 C120.9775,28.0393 119.4035,25.9883 116.3945,25.9883 C112.8335,25.9883 111.4295,28.4503 111.4295,32.9633 L111.4295,33.6533 L120.9775,32.6303 Z M116.8735,54.7153 C106.9565,54.7153 101.9635,48.3133 101.9635,37.5103 C101.9635,26.1503 107.7065,20.6573 116.5995,20.6573 C125.4185,20.6573 129.8645,25.8543 129.8645,36.0433 C129.8645,36.7993 129.8645,37.5463 129.8025,38.3043 L111.4975,38.3043 C111.7695,45.0763 113.1265,48.5353 120.4485,48.5353 C122.7005,48.5353 126.2375,47.5983 128.5665,47.1963 L128.5665,52.1843 C124.2585,53.8973 120.4275,54.7153 116.8735,54.7153 L116.8735,54.7153 Z" id="Fill-11" fill="#810052"></path>
            <path d="M154.3564,37.683 C154.3564,29.686 152.7824,25.784 148.4754,25.784 C144.0954,25.784 142.5174,29.614 142.5174,37.683 C142.5174,45.757 144.0954,49.513 148.4754,49.513 C152.7174,49.513 154.3564,45.757 154.3564,37.683 M133.1474,37.683 C133.1474,27.157 139.2414,20.657 148.4754,20.657 C157.9824,20.657 163.7274,26.883 163.7274,37.683 C163.7274,48.146 157.7104,54.715 148.4754,54.715 C138.7604,54.715 133.1474,48.693 133.1474,37.683" id="Fill-13" fill="#810052"></path>
            <path d="M176.9971,48.5639 C177.9591,48.6309 178.7741,48.6929 179.4631,48.6929 C185.4101,48.6929 188.6921,44.9359 188.6921,38.0209 C188.6921,30.9809 185.8911,27.4959 180.2101,27.4959 C179.2471,27.4959 178.1561,27.6359 176.9971,27.7669 L176.9971,48.5639 Z M181.1031,64.0159 L181.1031,67.9849 L164.3441,67.9849 L164.3441,64.0159 L168.4471,62.7829 L168.4471,27.0139 L164.3441,26.1949 L164.3441,22.2319 L176.9971,20.6569 L176.9971,23.7289 C179.5941,21.6779 182.1251,20.6569 184.9961,20.6569 C192.6551,20.6569 197.5181,26.3289 197.5181,35.6329 C197.5181,47.6699 191.4311,54.7149 181.3721,54.7149 C179.8031,54.7149 178.3671,54.4449 176.9971,53.9649 L176.9971,62.7829 L181.1031,64.0159 Z" id="Fill-15" fill="#810052"></path>
            <polygon id="Fill-17" fill="#810052" points="199.9106 12.4472 199.9106 8.4802 212.5626 7.0482 212.5626 48.6932 216.6626 49.9282 216.6626 53.8972 199.9106 53.8972 199.9106 49.9282 204.0166 48.6932 204.0166 13.2022"></polygon>
            <path d="M238.0107,32.6303 L238.0107,32.0773 C238.0107,28.0393 236.4407,25.9883 233.4287,25.9883 C229.8687,25.9883 227.8227,28.4503 227.8227,32.9633 L227.8227,33.6533 L238.0107,32.6303 Z M233.9077,54.7153 C223.9937,54.7153 218.9937,49.3083 218.9937,38.5073 C218.9937,27.1563 224.7407,20.6573 233.6297,20.6573 C242.4497,20.6573 246.9047,25.8543 246.9047,36.0433 C246.9047,36.7993 246.9047,37.5463 246.8337,38.3043 L227.8847,38.3043 C228.1627,45.0763 231.5107,47.8073 238.8317,47.8073 C241.0867,47.8073 243.2787,47.5983 245.6037,47.1963 L245.6037,52.1843 C241.2917,53.8973 237.4627,54.7153 233.9077,54.7153 L233.9077,54.7153 Z" id="Fill-19" fill="#810052"></path>
            <path d="M432.7002,16.4623 C430.1812,15.2633 429.2282,14.7233 429.2282,14.7233 C429.2282,14.7233 428.2332,15.9243 426.6562,17.5813 C425.0382,19.2923 423.9572,20.2963 423.9572,20.2963 C423.9572,20.2963 424.4842,21.0343 425.8792,23.5923 C427.1542,25.9333 427.6252,27.0433 427.6252,27.0433 C427.6252,27.0433 428.6902,26.6983 431.3182,26.2133 C434.1302,25.6833 435.1672,25.6293 435.1672,25.6293 C435.1672,25.6293 435.2192,24.4053 435.5502,21.8843 C435.9252,19.0243 436.1602,18.0233 436.1602,18.0233 C436.1602,18.0233 435.3632,17.7263 432.7002,16.4623" id="Fill-21" fill="#810052"></path>
            <polygon id="Fill-23" fill="#939698" points="28.8335 17.0673 30.3025 5.8513 20.0905 0.9933 12.3165 9.2033 17.7215 19.1353"></polygon>
            <path d="M301.3193,49.9408 L305.4903,48.7108 L305.4903,27.0498 L301.3193,26.2258 L301.3193,22.2688 L314.0293,20.6988 L314.0293,27.0178 C317.3803,24.4938 320.8423,21.1408 323.5263,20.8378 C324.8983,20.6768 326.2183,20.7468 327.6633,20.9538 L327.3883,28.9098 L318.5443,29.1848 C317.0413,29.3228 315.4643,30.3678 314.0293,30.9108 L314.0293,48.7108 L319.0833,49.9408 L319.0833,53.8968 L301.3193,53.8968 L301.3193,49.9408 Z" id="Fill-25" fill="#939698"></path>
            <path d="M249.5039,43.2934 L256.8959,43.2934 L259.2129,49.1764 C260.1029,49.2444 260.7849,49.2444 261.2679,49.2444 C265.5079,49.2444 267.6969,47.5334 267.6969,44.1844 C267.6969,40.6264 265.3039,39.0524 260.5219,36.1844 C254.9059,32.7604 250.2609,30.5014 250.2609,23.3204 C250.2609,16.0704 255.4529,11.6254 264.2049,11.6254 C267.9709,11.6254 271.7319,12.3104 275.4269,13.9514 L275.4269,22.3614 L267.9709,22.3614 L265.7779,16.8214 C265.3039,16.7534 264.8919,16.7534 264.4839,16.7534 C260.5799,16.7534 258.3859,18.6684 258.3859,21.6064 C258.3859,24.6944 260.5799,26.2664 264.4839,28.5184 C272.0759,32.9634 276.6589,35.7004 276.6589,42.4794 C276.6589,49.9284 271.4549,54.8544 262.1579,54.8544 C257.5079,54.8544 253.4049,53.8284 249.5039,52.0534 L249.5039,43.2934 Z" id="Fill-27" fill="#939698"></path>
            <path d="M277.1387,26.5365 L277.1387,22.4375 L282.9607,19.4255 L285.6177,13.8165 L289.7897,13.8165 L289.7897,21.4055 L299.1617,21.4055 L299.1617,26.5365 L289.7897,26.5365 L289.7897,41.4465 C289.7897,45.6235 290.3417,47.8075 295.1237,47.8075 C295.9417,47.8075 297.3127,47.6705 299.1617,47.3975 L299.1617,52.3855 C295.6727,53.8965 292.4597,54.7155 289.3127,54.7155 C282.9607,54.7155 281.2467,51.5045 281.2467,44.2535 L281.2467,26.5365 L277.1387,26.5365 Z" id="Fill-29" fill="#939698"></path>
            <path d="M349.0322,37.683 C349.0322,29.686 347.4552,25.784 343.1372,25.784 C338.7662,25.784 337.1902,29.614 337.1902,37.683 C337.1902,45.757 338.7662,49.513 343.1372,49.513 C347.3832,49.513 349.0322,45.757 349.0322,37.683 M327.8212,37.683 C327.8212,27.157 333.9082,20.657 343.1372,20.657 C352.6412,20.657 358.3942,26.883 358.3942,37.683 C358.3942,48.146 352.3762,54.715 343.1372,54.715 C333.4342,54.715 327.8212,48.693 327.8212,37.683" id="Fill-31" fill="#939698"></path>
            <path d="M359.8369,49.9281 L363.9389,48.6931 L363.9389,27.0131 L359.8369,26.1951 L359.8369,22.2321 L372.4829,20.6571 L372.4829,23.7291 C375.3589,21.7531 378.7069,20.7921 381.5189,20.7921 C388.5659,20.7921 390.8819,24.3491 390.8819,32.2151 L390.8819,48.6931 L394.9939,49.9281 L394.9939,53.8971 L378.1659,53.8971 L378.1659,49.9281 L382.3369,48.6931 L382.3369,33.7871 C382.3369,29.4061 380.4959,27.6361 375.9059,27.6361 C375.0189,27.6361 373.8529,27.7671 372.4829,27.9031 L372.4829,48.6931 L376.6679,49.9281 L376.6679,53.8971 L359.8369,53.8971 L359.8369,49.9281 Z" id="Fill-33" fill="#939698"></path>
            <path d="M415.4365,33.2357 C415.4365,28.0397 413.5975,25.2997 410.5175,25.2997 C407.2955,25.2997 405.4585,27.2877 405.4585,30.9107 C405.4585,35.6997 407.5095,38.5067 410.5175,38.5067 C413.5255,38.5067 415.4365,36.5217 415.4365,33.2357 M402.3085,58.3487 C402.3085,61.2847 405.1125,62.8497 410.7865,62.8497 C416.8105,62.8497 420.3665,60.3997 420.3665,57.3807 C420.3665,55.3977 418.8555,54.8537 415.8455,54.8537 L403.8765,54.8537 C402.8545,56.1527 402.3085,57.2547 402.3085,58.3487 M397.2495,32.4837 C397.2495,25.5087 402.6525,20.6567 410.1025,20.6567 C414.0695,20.6567 417.2205,21.4737 419.8955,23.5217 C421.5925,24.9727 423.7835,27.1757 423.7835,32.4237 C423.7835,38.8467 418.6525,43.2307 410.7865,43.2307 C409.4925,43.2307 408.6675,43.0227 408.2575,42.9497 C407.9875,44.0467 407.7795,44.8717 407.7795,45.5517 C407.7795,47.3317 409.2875,47.4657 412.2335,47.4657 L419.5455,47.4657 C425.3635,47.4657 428.2335,49.7177 428.2335,55.1957 C428.2335,61.8967 421.2525,67.9847 409.7015,67.9847 C400.2535,67.9847 394.6515,64.4927 394.6515,59.8497 C394.6515,56.9057 396.6975,54.8537 400.7405,53.0067 C399.6465,51.8467 399.0905,50.7517 399.0905,49.2447 C399.0905,46.8517 401.0045,44.7987 404.4975,42.1317 C399.8475,40.9707 397.2495,37.5467 397.2495,32.4837" id="Fill-35" fill="#939698"></path>
        </g>
    </g>
</svg>