<?xml version="1.0" encoding="UTF-8" standalone="no"?>
<svg width="454px" height="66px" viewBox="0 0 454 66" version="1.1" xmlns="http://www.w3.org/2000/svg" xmlns:xlink="http://www.w3.org/1999/xlink">
    <!-- Generator: Sketch 41.2 (35397) - http://www.bohemiancoding.com/sketch -->
    <title>Page 1</title>
    <desc>Created with Sketch.</desc>
    <defs></defs>
    <g id="Global" stroke="none" stroke-width="1" fill="none" fill-rule="evenodd">
        <g id="Page-1" fill="#FFFFFF">
            <path d="M399.4507,37.4198 C399.4507,39.5378 400.7217,40.6208 403.0747,40.6208 C403.8277,40.6208 404.7217,40.5258 405.8507,40.2908 L405.8507,33.7968 C401.4277,33.9838 399.4507,34.7378 399.4507,37.4198" id="Fill-1"></path>
            <path d="M440.1577,25.5605 L433.7107,25.5605 L433.7107,35.8205 C433.7107,38.6905 434.0867,40.1975 437.3817,40.1975 C437.9467,40.1975 438.8867,40.1025 440.1577,39.9145 L440.1577,43.3505 C437.7577,44.3855 435.5457,44.9505 433.3817,44.9505 C429.0047,44.9505 427.8277,42.7385 427.8277,37.7495 L427.8277,25.5605 L425.0047,25.5605 L425.0047,22.7365 L429.0047,20.6655 L430.8397,16.8065 L433.7107,16.8065 L433.7107,22.0315 L440.1577,22.0315 L440.1577,25.5605 Z M425.5697,44.3855 L414.0397,44.3855 L405.8507,44.9505 L405.8507,42.8325 C404.1567,44.2445 402.0867,44.9505 400.0627,44.9505 C396.1557,44.9505 393.4267,42.1735 393.4267,37.7495 C393.4267,32.8075 396.5797,30.5955 403.2157,30.5955 C404.0627,30.5955 404.9107,30.6435 405.8507,30.6905 L405.8507,28.9015 C405.8507,26.2655 405.4287,24.8545 402.9797,24.8545 C402.6977,24.8545 402.3217,24.9015 401.7577,24.9955 L400.7217,27.7255 L395.0737,27.7255 L395.0737,24.0075 C398.2737,22.3135 401.1917,21.5125 403.7807,21.5125 C409.5697,21.5125 411.7337,23.5365 411.7337,28.1485 L411.7337,40.5265 L416.8627,40.5625 L416.8627,16.3825 L414.0397,15.8655 L414.0397,13.1355 L422.7457,12.1475 L422.7457,40.8085 L425.5697,41.6565 L425.5697,44.3855 Z M452.9417,7.7405 C452.6007,4.5265 449.9857,1.9085 446.7707,1.5695 C429.7907,0.4025 403.9277,0.4025 386.9467,1.5695 C383.7327,1.9085 381.1177,4.5265 380.7747,7.7405 C379.6107,24.7205 379.6087,35.3755 380.7747,52.3565 C381.1177,55.5695 383.7327,58.1875 386.9467,58.5265 C403.9287,59.6935 429.7907,59.6935 446.7707,58.5265 C449.9827,58.1875 452.6017,55.5695 452.9417,52.3565 C454.1117,35.3765 454.1077,24.7185 452.9417,7.7405 L452.9417,7.7405 Z" id="Fill-3"></path>
            <path d="M232.5029,47.3437 L236.6739,46.1147 L236.6739,24.4527 L232.5029,23.6287 L232.5029,19.6727 L245.2129,18.1027 L245.2129,24.4207 C248.5639,21.8977 252.0259,18.5437 254.7109,18.2407 C256.0829,18.0797 257.4029,18.1507 258.8469,18.3577 L258.5729,26.3127 L249.7279,26.5877 C248.2249,26.7267 246.6479,27.7717 245.2129,28.3137 L245.2129,46.1147 L250.2669,47.3437 L250.2669,51.2997 L232.5029,51.2997 L232.5029,47.3437 Z" id="Fill-5"></path>
            <path d="M16.5596,29.6181 C20.5306,29.6181 23.2646,26.8091 23.2646,21.9571 C23.2646,17.4441 20.8706,14.7111 16.4226,14.7111 L13.8226,14.7111 L13.8226,29.6181 L16.5596,29.6181 Z M0.6936,47.3321 L4.7936,46.0971 L4.7936,15.0481 L0.6936,13.7501 L0.6936,9.8501 L17.2406,9.8501 C20.9446,9.8501 24.0876,9.9201 26.8876,11.3551 C30.5156,13.2001 32.5666,16.6901 32.5666,21.4041 C32.5666,30.0331 27.5036,34.5411 17.3796,34.5411 L13.8226,34.5411 L13.8226,46.0971 L19.0926,47.3321 L19.0926,51.3001 L0.6936,51.3001 L0.6936,47.3321 Z" id="Fill-7"></path>
            <path d="M52.1616,30.0331 L52.1616,29.4811 C52.1616,25.4431 50.5876,23.3911 47.5786,23.3911 C44.0176,23.3911 42.6136,25.8541 42.6136,30.3661 L42.6136,31.0561 L52.1616,30.0331 Z M48.0576,52.1181 C38.1396,52.1181 33.1466,45.7161 33.1466,34.9131 C33.1466,23.5541 38.8906,18.0601 47.7836,18.0601 C56.6016,18.0601 61.0486,23.2581 61.0486,33.4461 C61.0486,34.2021 61.0486,34.9501 60.9866,35.7071 L42.6816,35.7071 C42.9536,42.4791 44.3106,45.9381 51.6316,45.9381 C53.8836,45.9381 57.4216,45.0011 59.7506,44.6001 L59.7506,49.5871 C55.4416,51.3001 51.6106,52.1181 48.0576,52.1181 L48.0576,52.1181 Z" id="Fill-9"></path>
            <path d="M85.54,35.0868 C85.54,27.0898 83.967,23.1878 79.659,23.1878 C75.279,23.1878 73.701,27.0168 73.701,35.0868 C73.701,43.1598 75.279,46.9158 79.659,46.9158 C83.901,46.9158 85.54,43.1598 85.54,35.0868 M64.331,35.0868 C64.331,24.5598 70.425,18.0608 79.659,18.0608 C89.166,18.0608 94.911,24.2868 94.911,35.0868 C94.911,45.5488 88.894,52.1178 79.659,52.1178 C69.944,52.1178 64.331,46.0968 64.331,35.0868" id="Fill-11"></path>
            <path d="M108.1807,45.9667 C109.1427,46.0337 109.9587,46.0967 110.6467,46.0967 C116.5937,46.0967 119.8757,42.3387 119.8757,35.4247 C119.8757,28.3837 117.0747,24.8997 111.3947,24.8997 C110.4317,24.8997 109.3397,25.0387 108.1807,25.1697 L108.1807,45.9667 Z M112.2867,61.4197 L112.2867,65.3877 L95.5287,65.3877 L95.5287,61.4197 L99.6317,60.1867 L99.6317,24.4167 L95.5287,23.5987 L95.5287,19.6347 L108.1807,18.0607 L108.1807,21.1317 C110.7787,19.0807 113.3087,18.0607 116.1797,18.0607 C123.8387,18.0607 128.7017,23.7327 128.7017,33.0357 C128.7017,45.0727 122.6147,52.1177 112.5557,52.1177 C110.9877,52.1177 109.5517,51.8477 108.1807,51.3677 L108.1807,60.1867 L112.2867,61.4197 Z" id="Fill-13"></path>
            <polygon id="Fill-15" points="131.0947 9.8505 131.0947 5.8835 143.7467 4.4515 143.7467 46.0965 147.8457 47.3315 147.8457 51.2995 131.0947 51.2995 131.0947 47.3315 135.1997 46.0965 135.1997 10.6055"></polygon>
            <path d="M169.1948,30.0331 L169.1948,29.4811 C169.1948,25.4431 167.6238,23.3911 164.6128,23.3911 C161.0528,23.3911 159.0068,25.8541 159.0068,30.3661 L159.0068,31.0561 L169.1948,30.0331 Z M165.0918,52.1181 C155.1778,52.1181 150.1778,46.7121 150.1778,35.9101 C150.1778,24.5591 155.9248,18.0601 164.8138,18.0601 C173.6338,18.0601 178.0878,23.2581 178.0878,33.4461 C178.0878,34.2021 178.0878,34.9501 178.0178,35.7071 L159.0688,35.7071 C159.3468,42.4791 162.6948,45.2101 170.0158,45.2101 C172.2708,45.2101 174.4618,45.0011 176.7878,44.6001 L176.7878,49.5871 C172.4758,51.3001 168.6468,52.1181 165.0918,52.1181 L165.0918,52.1181 Z" id="Fill-17"></path>
            <path d="M180.688,40.6972 L188.08,40.6972 L190.396,46.5792 C191.286,46.6472 191.969,46.6472 192.452,46.6472 C196.691,46.6472 198.881,44.9372 198.881,41.5882 C198.881,38.0292 196.488,36.4562 191.705,33.5882 C186.09,30.1642 181.445,27.9042 181.445,20.7232 C181.445,13.4732 186.637,9.0282 195.389,9.0282 C199.155,9.0282 202.915,9.7132 206.611,11.3552 L206.611,19.7642 L199.155,19.7642 L196.963,14.2252 C196.488,14.1572 196.075,14.1572 195.668,14.1572 C191.764,14.1572 189.569,16.0712 189.569,19.0102 C189.569,22.0972 191.764,23.6692 195.668,25.9212 C203.26,30.3662 207.843,33.1032 207.843,39.8822 C207.843,47.3322 202.639,52.2582 193.342,52.2582 C188.691,52.2582 184.589,51.2322 180.688,49.4562 L180.688,40.6972 Z" id="Fill-19"></path>
            <path d="M208.3223,23.9394 L208.3223,19.8404 L214.1453,16.8284 L216.8013,11.2204 L220.9733,11.2204 L220.9733,18.8084 L230.3463,18.8084 L230.3463,23.9394 L220.9733,23.9394 L220.9733,38.8494 C220.9733,43.0264 221.5253,45.2104 226.3083,45.2104 C227.1253,45.2104 228.4963,45.0734 230.3463,44.8004 L230.3463,49.7894 C226.8573,51.2994 223.6443,52.1184 220.4963,52.1184 C214.1453,52.1184 212.4303,48.9074 212.4303,41.6564 L212.4303,23.9394 L208.3223,23.9394 Z" id="Fill-21"></path>
            <path d="M280.2163,35.0868 C280.2163,27.0898 278.6383,23.1878 274.3203,23.1878 C269.9493,23.1878 268.3743,27.0168 268.3743,35.0868 C268.3743,43.1598 269.9493,46.9158 274.3203,46.9158 C278.5663,46.9158 280.2163,43.1598 280.2163,35.0868 M259.0053,35.0868 C259.0053,24.5598 265.0923,18.0608 274.3203,18.0608 C283.8253,18.0608 289.5783,24.2868 289.5783,35.0868 C289.5783,45.5488 283.5603,52.1178 274.3203,52.1178 C264.6183,52.1178 259.0053,46.0968 259.0053,35.0868" id="Fill-23"></path>
            <path d="M291.021,47.332 L295.123,46.097 L295.123,24.417 L291.021,23.599 L291.021,19.635 L303.667,18.061 L303.667,21.132 C306.543,19.157 309.891,18.195 312.703,18.195 C319.749,18.195 322.066,21.752 322.066,29.618 L322.066,46.097 L326.178,47.332 L326.178,51.3 L309.35,51.3 L309.35,47.332 L313.521,46.097 L313.521,31.191 C313.521,26.81 311.68,25.039 307.09,25.039 C306.203,25.039 305.037,25.17 303.667,25.307 L303.667,46.097 L307.852,47.332 L307.852,51.3 L291.021,51.3 L291.021,47.332 Z" id="Fill-25"></path>
            <path d="M346.6196,30.6396 C346.6196,25.4436 344.7816,22.7026 341.7016,22.7026 C338.4786,22.7026 336.6416,24.6916 336.6416,28.3136 C336.6416,33.1036 338.6936,35.9106 341.7016,35.9106 C344.7096,35.9106 346.6196,33.9246 346.6196,30.6396 M333.4926,55.7526 C333.4926,58.6876 336.2966,60.2536 341.9696,60.2536 C347.9946,60.2536 351.5496,57.8026 351.5496,54.7836 C351.5496,52.8006 350.0396,52.2576 347.0296,52.2576 L335.0606,52.2576 C334.0386,53.5556 333.4926,54.6586 333.4926,55.7526 M328.4326,29.8866 C328.4326,22.9116 333.8366,18.0606 341.2866,18.0606 C345.2536,18.0606 348.4036,18.8766 351.0796,20.9246 C352.7756,22.3756 354.9676,24.5796 354.9676,29.8266 C354.9676,36.2506 349.8366,40.6336 341.9696,40.6336 C340.6766,40.6336 339.8516,40.4256 339.4416,40.3526 C339.1716,41.4506 338.9636,42.2746 338.9636,42.9546 C338.9636,44.7346 340.4706,44.8686 343.4166,44.8686 L350.7296,44.8686 C356.5476,44.8686 359.4176,47.1216 359.4176,52.5996 C359.4176,59.2996 352.4356,65.3876 340.8856,65.3876 C331.4376,65.3876 325.8356,61.8966 325.8356,57.2526 C325.8356,54.3096 327.8816,52.2576 331.9246,50.4106 C330.8306,49.2496 330.2746,48.1546 330.2746,46.6476 C330.2746,44.2546 332.1886,42.2026 335.6816,39.5356 C331.0316,38.3736 328.4326,34.9506 328.4326,29.8866" id="Fill-27"></path>
            <path d="M363.8833,13.8661 C361.3653,12.6671 360.4123,12.1271 360.4123,12.1271 C360.4123,12.1271 359.4173,13.3281 357.8393,14.9841 C356.2223,16.6951 355.1413,17.7001 355.1413,17.7001 C355.1413,17.7001 355.6673,18.4381 357.0633,20.9951 C358.3373,23.3371 358.8093,24.4461 358.8093,24.4461 C358.8093,24.4461 359.8743,24.1021 362.5023,23.6161 C365.3143,23.0871 366.3503,23.0331 366.3503,23.0331 C366.3503,23.0331 366.4023,21.8081 366.7333,19.2881 C367.1093,16.4281 367.3443,15.4261 367.3443,15.4261 C367.3443,15.4261 366.5463,15.1301 363.8833,13.8661" id="Fill-29"></path>
        </g>
    </g>
</svg>