<?xml version="1.0" encoding="UTF-8" standalone="no"?>
<svg width="30px" height="30px" viewBox="0 0 30 30" version="1.1" xmlns="http://www.w3.org/2000/svg" xmlns:xlink="http://www.w3.org/1999/xlink">
    <!-- Generator: Sketch 41.2 (35397) - http://www.bohemiancoding.com/sketch -->
    <title>Group 7</title>
    <desc>Created with Sketch.</desc>
    <defs>
        <path d="M15,30 C23.2842729,30 30,23.2842729 30,15 C30,6.71572714 23.2842729,0 15,0 C6.71572714,0 0,6.71572714 0,15 C0,23.2842729 6.71572714,30 15,30 Z" id="path-1"></path>
        <path d="M15.2142857,7.28571429 C11.0724514,7.28571429 7.71428571,10.6473514 7.71428571,14.7934671 C7.71428571,17.8838229 9.58011857,20.5378971 12.2447871,21.6904243 C12.2256171,21.1670486 12.2442857,20.5429029 12.37662,19.9769871 C12.52212,19.3661871 13.3461171,15.8712471 13.3461171,15.8712471 C13.3461171,15.8712471 13.1054529,15.3895843 13.1054529,14.6785157 C13.1054529,13.56303 13.7526171,12.7281686 14.5569514,12.7281686 C15.2417871,12.7281686 15.5727857,13.2440357 15.5727857,13.8605057 C15.5727857,14.5492157 15.1337871,15.5792786 14.90712,16.5334286 C14.7194529,17.33259 15.30912,17.9850943 16.0964529,17.9850943 C17.5214529,17.9850943 18.4812857,16.1517043 18.4812857,13.97829 C18.4812857,12.3277543 17.3717871,11.0909786 15.3502843,11.0909786 C13.0677857,11.0909786 11.6437843,12.79557 11.6437843,14.7000386 C11.6437843,15.3562157 11.8377857,15.8198614 12.1412871,16.1777314 C12.2804529,16.3424014 12.2992843,16.4088 12.2484514,16.5984986 C12.2117871,16.7363057 12.1307871,17.0699829 12.0959529,17.20329 C12.0461186,17.3939871 11.8909543,17.4608871 11.7187843,17.3908157 C10.6677857,16.9618714 10.1771186,15.8088471 10.1771186,14.51301 C10.1771186,12.3721329 11.98062,9.80548286 15.5567871,9.80548286 C18.4314514,9.80548286 20.3224543,11.8878 20.3224543,14.1212743 C20.3224543,17.0786614 18.6804514,19.2859414 16.2611186,19.2859414 C15.4482857,19.2859414 14.6832857,18.8459871 14.4227871,18.3474686 C14.4227871,18.3474686 13.9842857,20.0819271 13.8927857,20.4182743 C13.7347843,20.9907 13.4304514,21.5626243 13.1484514,22.01292 C13.8039514,22.20045 14.4969514,22.30122 15.2142857,22.30122 C19.35612,22.30122 22.7142857,18.9395829 22.7142857,14.7934671 C22.7142857,10.6473514 19.35612,7.28571429 15.2142857,7.28571429 Z" id="path-3"></path>
    </defs>
    <g id="Jobs" stroke="none" stroke-width="1" fill="none" fill-rule="evenodd">
        <g id="Group-7">
            <mask id="mask-2" fill="white">
                <use xlink:href="#path-1"></use>
            </mask>
            <use id="Clip-2" fill="#CC2127" xlink:href="#path-1"></use>
            <mask id="mask-4" fill="white">
                <use xlink:href="#path-3"></use>
            </mask>
            <g id="Clip-5"></g>
            <polygon id="Fill-4" fill="#FFFFFF" mask="url(#mask-4)" points="5.57142857 5.14285714 24.8571429 5.14285714 24.8571429 24.4440771 5.57142857 24.4440771"></polygon>
        </g>
    </g>
</svg>