<?xml version="1.0" encoding="UTF-8" standalone="no"?>
<svg width="30px" height="30px" viewBox="0 0 30 30" version="1.1" xmlns="http://www.w3.org/2000/svg" xmlns:xlink="http://www.w3.org/1999/xlink">
    <!-- Generator: Sketch 41.2 (35397) - http://www.bohemiancoding.com/sketch -->
    <title>Group 13</title>
    <desc>Created with Sketch.</desc>
    <defs>
        <path d="M19.1198914,14.4973886 C19.1679686,13.8174557 19.6760443,13.0083471 20.7518143,13.0083471 C21.9000814,13.0083471 22.3714286,13.8290057 22.4079686,14.4973886 L19.1198914,14.4973886 Z M20.7637371,12 C19.0352743,12 17.8021971,13.32483 17.8021971,14.9663314 C17.8021971,16.7601086 19.0954671,17.9445986 20.8604657,17.9444057 C21.7789286,17.9444057 22.6373914,17.6514129 23.2296986,17.1118157 L22.6496957,16.3027114 C22.2266229,16.7131371 21.5618143,16.9360586 20.98143,16.9360586 C19.8812357,16.9360586 19.2287357,16.22109 19.1318143,15.3765643 L23.62893,15.3765643 L23.62893,15.0718243 C23.62893,13.2896014 22.5164271,12 20.7637371,12 Z" id="path-1"></path>
        <path d="M10.1701371,13.8407486 C10.4362929,13.4771014 10.9560986,13.0903586 11.5241743,13.0903586 C12.2132143,13.0903586 12.47937,13.50078 12.47937,14.1102557 L12.47937,17.8034914 L13.74879,17.8034914 L13.74879,13.8407486 C14.0024443,13.4655514 14.5347514,13.0903586 15.1028314,13.0903586 C15.7916743,13.0903586 16.0697529,13.50078 16.0697529,14.1102557 L16.0697529,17.8034914 L17.3387914,17.8034914 L17.3387914,13.7115771 C17.3387914,12.5626971 16.7226386,12 15.6584057,12 C14.77629,12 14.0024443,12.5274686 13.6761,13.0316443 C13.4826386,12.4219757 12.95052,12 12.08052,12 C11.1859071,12 10.42437,12.5626971 10.1701371,12.9028543 L10.1701371,12.1405286 L8.90109857,12.1405286 L8.90109857,17.8034914 L10.1701371,17.8034914 L10.1701371,13.8407486 Z" id="path-3"></path>
        <path d="M7.27472571,17.5973529 C7.73415,17.5973529 8.12107286,17.2102243 8.12107286,16.7649557 C8.12107286,16.3310486 7.73415,15.9560443 7.27472571,15.9560443 C6.81530143,15.9560443 6.42857143,16.3310486 6.42857143,16.7649557 C6.42857143,17.2102243 6.81530143,17.5975457 7.27472571,17.5973529 Z" id="path-5"></path>
    </defs>
    <g id="Jobs" stroke="none" stroke-width="1" fill="none" fill-rule="evenodd">
        <g id="Group-13">
            <path d="M15,30 C23.2842729,30 30,23.2842729 30,15 C30,6.71572714 23.2842729,0 15,0 C6.71572714,0 0,6.71572714 0,15 C0,23.2842729 6.71572714,30 15,30 Z" id="Clip-2" fill="#EEB111"></path>
            <mask id="mask-2" fill="white">
                <use xlink:href="#path-1"></use>
            </mask>
            <g id="Clip-5"></g>
            <polygon id="Fill-4" fill="#FFFFFF" mask="url(#mask-2)" points="15.65934 9.85714286 25.7717871 9.85714286 25.7717871 20.0872629 15.65934 20.0872629"></polygon>
            <mask id="mask-4" fill="white">
                <use xlink:href="#path-3"></use>
            </mask>
            <g id="Clip-8"></g>
            <polygon id="Fill-7" fill="#FFFFFF" mask="url(#mask-4)" points="6.75824143 9.85714286 19.4816486 9.85714286 19.4816486 19.9463486 6.75824143 19.9463486"></polygon>
            <mask id="mask-6" fill="white">
                <use xlink:href="#path-5"></use>
            </mask>
            <g id="Clip-11"></g>
            <polygon id="Fill-10" fill="#FFFFFF" mask="url(#mask-6)" points="4.28571429 13.8131871 10.26393 13.8131871 10.26393 19.74021 4.28571429 19.74021"></polygon>
        </g>
    </g>
</svg>