<?xml version="1.0" encoding="UTF-8" standalone="no"?>
<svg width="30px" height="30px" viewBox="0 0 40 40" version="1.1" xmlns="http://www.w3.org/2000/svg" xmlns:xlink="http://www.w3.org/1999/xlink">
    <!-- Generator: Sketch 41.2 (35397) - http://www.bohemiancoding.com/sketch -->
    <title>Shape</title>
    <desc>Created with Sketch.</desc>
    <defs></defs>
    <g id="Global" stroke="none" stroke-width="1" fill="none" fill-rule="evenodd">
        <path d="M20,0 C8.955,0 0,8.955 0,20 C0,31.045 8.955,40 20,40 C31.045,40 40,31.045 40,20 C40,8.955 31.045,0 20,0 L20,0 Z M27.2598043,16.4988365 C27.4820344,21.4848329 23.8231302,27.0434783 17.3456675,27.0434783 C15.3759554,27.0434783 13.5434674,26.4560193 12,25.4501809 C13.8507036,25.6723293 15.6977641,25.1490465 17.1635117,23.9827676 C15.6382599,23.954382 14.3498107,22.9287971 13.904136,21.5206234 C14.451818,21.626761 14.9909994,21.595907 15.4803915,21.4601497 C13.8033431,21.1170539 12.6448318,19.581762 12.6824773,17.9390983 C13.1536538,18.2044422 13.6904065,18.3636485 14.2623759,18.3821609 C12.7091935,17.3269562 12.2695907,15.2424642 13.1827988,13.6491668 C14.9023502,15.7941326 17.4731767,17.2047746 20.3718837,17.3528735 C19.8630616,15.1363266 21.5182513,13 23.7709122,13 C24.7727695,13 25.6799057,13.430721 26.3162369,14.1193809 C27.1104365,13.9614087 27.8584899,13.6652109 28.5312522,13.2591731 C28.2701622,14.0872928 27.7176227,14.7808893 26.9974998,15.2202494 C27.7030502,15.1338583 28.3758126,14.9437981 29,14.661176 C28.533681,15.374519 27.943496,15.9990027 27.2598043,16.4988365 L27.2598043,16.4988365 Z" id="Shape" fill="#52A8E1"></path>
    </g>
</svg>