<?xml version="1.0" encoding="UTF-8" standalone="no"?>
<svg width="30px" height="30px" viewBox="0 0 30 30" version="1.1" xmlns="http://www.w3.org/2000/svg" xmlns:xlink="http://www.w3.org/1999/xlink">
    <!-- Generator: Sketch 41.2 (35397) - http://www.bohemiancoding.com/sketch -->
    <title>Group 9</title>
    <desc>Created with Sketch.</desc>
    <defs>
        <path d="M15,30 C23.2842729,30 30,23.2842729 30,15 C30,6.71572714 23.2842729,0 15,0 C6.71572714,0 0,6.71572714 0,15 C0,23.2842729 6.71572714,30 15,30 Z" id="path-1"></path>
        <path d="M8.57142857,10.1159314 C8.57142857,10.1159314 10.0257943,19.9016529 14.2370014,22.47693 C14.8124829,22.8103843 15.4650086,22.7945314 15.9031629,22.4164714 C17.6603829,20.9014586 19.4799086,18.3499629 19.9947429,17.1684043 C20.9624743,17.2605686 21.6291986,17.0237057 21.6291986,17.0237057 L21.6231129,15.1560729 C21.6231129,15.1560729 20.2039543,15.1827986 19.9335429,15.1868529 C17.8749429,15.2174529 16.45431,12.7195929 17.2913529,10.6091957 C17.8714414,9.14727429 18.8913386,10.2009043 19.0730914,10.65528 C19.25484,11.1096557 19.2150257,12.3271543 18.9503271,13.2204214 C19.2729043,13.9732243 21.0240429,14.3724814 21.4233,13.7428114 C21.9150943,12.3603343 22.1300229,9.87187714 20.8551943,8.58156429 C20.0142814,7.73051143 17.9031471,7.29825857 16.3579071,8.26783286 C14.8124829,9.23722714 14.84271,11.2974857 14.964,12.3275229 C15.08529,13.3577443 15.41856,15.5389243 17.4786343,16.7508943 C17.6603829,16.9628743 15.2204057,20.1320657 15.08529,19.9928957 C12.0556371,16.8721843 11.23758,10.1461586 11.23758,10.1461586 L8.57142857,10.1159314 Z" id="path-3"></path>
    </defs>
    <g id="Jobs" stroke="none" stroke-width="1" fill="none" fill-rule="evenodd">
        <g id="Group-9">
            <mask id="mask-2" fill="white">
                <use xlink:href="#path-1"></use>
            </mask>
            <use id="Clip-2" fill="#1CCD94" xlink:href="#path-1"></use>
            <mask id="mask-4" fill="white">
                <use xlink:href="#path-3"></use>
            </mask>
            <g id="Clip-5"></g>
            <polygon id="Fill-4" fill="#FEFEFE" mask="url(#mask-4)" points="6.42857143 5.57142857 23.9513657 5.57142857 23.9513657 24.8571429 6.42857143 24.8571429"></polygon>
        </g>
    </g>
</svg>