<?xml version="1.0" encoding="UTF-8" standalone="no"?>
<svg width="30px" height="30px" viewBox="0 0 30 30" version="1.1" xmlns="http://www.w3.org/2000/svg" xmlns:xlink="http://www.w3.org/1999/xlink">
    <!-- Generator: Sketch 41.2 (35397) - http://www.bohemiancoding.com/sketch -->
    <title>Group 6</title>
    <desc>Created with Sketch.</desc>
    <defs>
        <path d="M20.4715029,9.89412 C19.0677471,8.48918571 17.2009029,7.71507429 15.2118857,7.71428571 C11.1137014,7.71428571 7.77826714,11.0484429 7.77663,15.14667 C7.77610286,16.4566757 8.11847143,17.7354257 8.76911143,18.8625771 L7.71428571,22.7142857 L11.6558143,21.6807 C12.7418229,22.2728229 13.9645029,22.5848829 15.2089286,22.58541 L15.2119671,22.58541 C15.2122114,22.58541 15.2117229,22.58541 15.2119886,22.58541 C19.30977,22.58541 22.6455043,19.2508457 22.6471629,15.15258 C22.6479557,13.1665414 21.8753014,11.29905 20.4715029,9.89412 Z M15.2119886,21.3300686 L15.2094557,21.3300686 C14.1005486,21.3296443 13.01292,21.0318386 12.0640886,20.4689529 L11.8384071,20.3350757 L9.49944857,20.9484386 L10.12377,18.6687043 L9.97679143,18.4349657 C9.35817857,17.4513471 9.03146143,16.3144371 9.03195,15.1471543 C9.03328286,11.7408943 11.8055871,8.96964429 15.2143757,8.96964429 C16.8649929,8.97027429 18.41664,9.61374857 19.5834171,10.7814557 C20.7501943,11.9491629 21.3923914,13.5013757 21.3917829,15.1521129 C21.3904457,18.5586557 18.6181671,21.3300686 15.2119886,21.3300686 Z M17.33229,16.0989 C17.16201,16.0369029 17.0381743,16.0059214 16.9142786,16.1918786 C16.79046,16.3777929 16.4344243,16.79613 16.3260171,16.9200686 C16.2176529,17.0440243 16.1092886,17.0595343 15.9235157,16.9665557 C15.7377214,16.8735986 15.1391143,16.67748 14.4295114,16.0447586 C13.8772543,15.5523514 13.5043714,14.94411 13.3960071,14.7581529 C13.2876429,14.5722214 13.3844871,14.47173 13.4774829,14.3791157 C13.5610457,14.2959171 13.6632557,14.1622029 13.7561529,14.0537571 C13.8490286,13.9453286 13.88001,13.8678214 13.9419257,13.7438829 C14.0038671,13.6199271 13.9728857,13.51146 13.9264371,13.4185029 C13.88001,13.3255457 13.5084429,12.4113986 13.35363,12.0395486 C13.2028457,11.6773971 13.0496486,11.7264 12.9356143,11.7207086 C12.82737,11.7153214 12.7033929,11.71419 12.5795571,11.71419 C12.4557214,11.71419 12.2544386,11.7606557 12.0841543,11.9465914 C11.91387,12.1325271 11.4339386,12.5818457 11.4339386,13.4959714 C11.4339386,14.4100971 12.0996257,15.2932414 12.1925229,15.41718 C12.28542,15.5411357 13.5025286,17.41707 15.3661757,18.2215329 C15.8094386,18.4128729 16.1554714,18.5271514 16.4252957,18.6127586 C16.8703371,18.7540671 17.2753329,18.7341429 17.5954714,18.68634 C17.9523986,18.6330257 18.6946029,18.2370643 18.8494543,17.8032343 C19.0042714,17.3693871 19.0042714,16.9975543 18.9578229,16.92009 C18.9113743,16.8426214 18.7875386,16.79613 18.6017657,16.7031514 C18.41595,16.6101943 17.5025957,16.16088 17.33229,16.0989 Z" id="path-1"></path>
    </defs>
    <g id="Jobs" stroke="none" stroke-width="1" fill="none" fill-rule="evenodd">
        <g id="Group-6">
            <path d="M15,30 C23.2842729,30 30,23.2842729 30,15 C30,6.71572714 23.2842729,0 15,0 C6.71572714,0 0,6.71572714 0,15 C0,23.2842729 6.71572714,30 15,30 Z" id="Clip-2" fill="#3ACE01"></path>
            <mask id="mask-2" fill="white">
                <use xlink:href="#path-1"></use>
            </mask>
            <g id="Clip-5"></g>
            <polygon id="Fill-4" fill="#FFFFFF" mask="url(#mask-2)" points="5.57142857 5.57142857 24.7900243 5.57142857 24.7900243 24.8571429 5.57142857 24.8571429"></polygon>
        </g>
    </g>
</svg>