<?xml version="1.0" encoding="UTF-8" standalone="no"?>
<svg width="9px" height="16px" viewBox="0 0 9 16" version="1.1" xmlns="http://www.w3.org/2000/svg" xmlns:xlink="http://www.w3.org/1999/xlink">
    <!-- Generator: Sketch 41.2 (35397) - http://www.bohemiancoding.com/sketch -->
    <title>Group</title>
    <desc>Created with Sketch.</desc>
    <defs>
        <rect id="path-1" x="0" y="0" width="16" height="16"></rect>
    </defs>
    <g id="Page-1" stroke="none" stroke-width="1" fill="none" fill-rule="evenodd">
        <g id="Group" transform="translate(-4.000000, 0.000000)">
            <mask id="mask-2" fill="white">
                <use xlink:href="#path-1"></use>
            </mask>
            <g id="Mask"></g>
            <g mask="url(#mask-2)" fill="#EE4180">
                <g transform="translate(4.000000, 0.000000)">
                    <path d="M2.5895997,14.9228936 C2.4807997,15.4982128 1.9585597,15.9693617 1.4279997,15.9693617 C0.897439699,15.9693617 0.551199699,15.4982128 0.659999699,14.9228936 L1.6065597,9.89685106 C1.7147197,9.32153191 2.2375997,8.85106383 2.7675197,8.85106383 C3.2980797,8.85106383 3.6436797,9.32153191 3.5361597,9.89685106 L2.5895997,14.9228936 Z" id="Fill-8"></path>
                    <path d="M6.08704286,14.9235745 C6.19520286,15.4988936 6.71936286,15.9693617 7.25120286,15.9693617 C7.78240286,15.9693617 8.12864286,15.4988936 8.02048286,14.9235745 L7.07136286,9.89685106 C6.96320286,9.32153191 6.43968286,8.85106383 5.90784286,8.85106383 C5.37664286,8.85106383 5.03168286,9.32153191 5.13984286,9.89685106 L6.08704286,14.9235745 Z" id="Fill-10"></path>
                    <path d="M7.2928,8.18365958 C7.91872,8.09310639 8.43008,8.46961703 8.43008,9.02042554 C8.43008,9.5719149 7.91872,10.0954894 7.2928,10.184 L5.29664,10.4679149 C4.67008,10.5571064 3.64672,10.5557447 3.02016,10.4638298 L1.13856,10.188766 C0.512,10.0968511 0,9.5719149 0,9.02042554 C0,8.46961703 0.512,8.09378724 1.13856,8.18502128 L3.05856,8.46485107 C3.68448,8.55608511 4.70848,8.55676597 5.33376,8.46621277 L7.2928,8.18365958 Z" id="Fill-12"></path>
                    <path d="M5.8082534,0 C6.8424934,0 7.5701734,0.891914894 7.4255334,1.9812766 L6.9877734,5.28408511 C6.8424934,6.37344681 5.8786534,7.26468085 4.8444134,7.26468085 L3.2392934,7.26468085 C2.2050534,7.26468085 1.2412134,6.37344681 1.0972134,5.28408511 L0.6581734,1.9812766 C0.5141734,0.891914894 1.2418534,0 2.2760934,0 L5.8082534,0 Z" id="Fill-14"></path>
                </g>
            </g>
        </g>
    </g>
</svg>